<?xml version="1.0" standalone="no"?>
<!DOCTYPE svg PUBLIC "-//W3C//DTD SVG 20010904//EN"
 "http://www.w3.org/TR/2001/REC-SVG-20010904/DTD/svg10.dtd">
<svg version="1.0" xmlns="http://www.w3.org/2000/svg"
 width="708.000000pt" height="780.000000pt" viewBox="0 0 708.000000 780.000000"
 preserveAspectRatio="xMidYMid meet">
<metadata>
Created by potrace 1.16, written by Peter Selinger 2001-2019
</metadata>
<g transform="translate(0.000000,780.000000) scale(0.100000,-0.100000)"
fill="#000000" stroke="none">
<path d="M3395 7661 c-78 -24 -146 -51 -270 -106 -16 -7 -52 -23 -80 -35 -59
-26 -502 -247 -558 -279 -22 -12 -78 -43 -125 -68 -107 -57 -388 -214 -462
-258 -30 -18 -71 -42 -90 -53 -40 -22 -277 -162 -360 -212 -215 -131 -650
-413 -746 -484 -23 -17 -54 -40 -69 -51 -145 -105 -195 -145 -266 -213 -84
-78 -111 -122 -138 -222 -26 -92 -59 -346 -71 -540 -5 -80 -14 -215 -21 -300
-16 -212 -16 -1717 0 -1895 6 -71 16 -200 21 -285 11 -188 43 -438 69 -542 24
-97 48 -137 128 -215 69 -66 313 -254 463 -355 30 -21 66 -45 80 -55 14 -9 52
-34 85 -55 33 -21 74 -47 90 -58 76 -52 216 -140 222 -140 4 0 14 -6 22 -14 9
-8 32 -23 51 -34 19 -11 122 -72 227 -136 106 -64 194 -116 197 -116 2 0 46
-25 97 -56 52 -31 101 -59 109 -63 8 -3 92 -49 185 -102 331 -188 772 -412
980 -499 298 -125 361 -134 540 -71 181 64 247 93 545 241 166 83 260 132 435
227 61 33 142 77 180 98 39 21 113 63 165 93 52 31 154 89 225 130 192 110
383 225 548 331 49 31 123 78 165 105 99 62 298 196 432 290 212 150 357 282
394 360 23 48 28 69 55 206 88 463 116 2038 50 2870 -15 193 -39 408 -54 480
-8 36 -17 81 -21 100 -17 89 -76 173 -190 270 -58 51 -245 190 -336 251 -51
35 -97 67 -103 71 -42 36 -607 392 -755 476 -24 14 -83 48 -130 77 -47 29
-108 65 -135 80 -138 78 -369 207 -440 245 -44 23 -129 70 -190 103 -136 74
-540 271 -655 319 -151 64 -185 76 -260 97 -95 27 -125 25 -235 -8z m-665
-2130 c0 -6 -4 -13 -10 -16 -5 -3 -10 1 -10 9 0 9 5 16 10 16 6 0 10 -4 10 -9z"/>
</g>
</svg>
