<?xml version="1.0" standalone="no"?>
<!DOCTYPE svg PUBLIC "-//W3C//DTD SVG 20010904//EN"
 "http://www.w3.org/TR/2001/REC-SVG-20010904/DTD/svg10.dtd">
<svg version="1.0" xmlns="http://www.w3.org/2000/svg"
 width="3033.000000pt" height="645.000000pt" viewBox="0 0 3033.000000 645.000000"
 preserveAspectRatio="xMidYMid meet">
<metadata>
Created by potrace 1.16, written by Peter Selinger 2001-2019
</metadata>
<g transform="translate(0.000000,645.000000) scale(0.100000,-0.100000)"
fill="#000000" stroke="none">
<path d="M22028 6383 c-9 -2 -18 -16 -20 -31 l-4 -27 -12 28 c-11 27 -14 28
-74 25 -60 -3 -63 -4 -66 -30 -4 -31 -17 -35 -42 -13 -15 14 -20 12 -54 -21
-28 -27 -43 -35 -62 -31 -35 6 -41 -13 -37 -118 2 -49 5 -382 7 -740 4 -576 6
-656 21 -700 9 -27 23 -57 31 -66 21 -24 17 -54 -13 -98 -26 -37 -32 -40 -74
-41 -30 0 -51 5 -59 16 -38 45 -81 37 -73 -14 l4 -27 -14 24 c-28 48 -101 55
-144 15 -27 -25 -27 -25 -35 -5 -4 12 -9 21 -10 22 -2 0 -23 3 -48 5 -62 7
-97 -8 -105 -45 -4 -19 -13 -31 -23 -31 -9 0 -26 -7 -36 -15 -11 -8 -31 -15
-45 -15 -14 -1 -44 -14 -66 -30 -22 -16 -57 -41 -77 -56 -21 -15 -38 -31 -38
-37 0 -5 -19 -27 -41 -48 -23 -21 -47 -49 -54 -61 -43 -82 -56 -102 -74 -115
-17 -11 -21 -25 -21 -67 0 -44 -6 -63 -32 -102 -20 -30 -42 -50 -55 -52 -16
-2 -23 -10 -23 -26 0 -13 -7 -43 -15 -67 -13 -37 -15 -84 -11 -284 5 -286 13
-331 61 -363 30 -19 34 -26 29 -50 -9 -38 -42 -70 -83 -82 -54 -15 -86 -12
-106 10 -10 11 -34 22 -54 25 -63 10 -138 35 -151 50 -7 9 -19 41 -27 73 -8
31 -18 71 -22 89 -14 52 -88 191 -135 252 -24 31 -56 78 -72 106 -48 83 -243
265 -371 345 -59 37 -327 170 -342 170 -6 0 -11 -17 -11 -39 0 -40 -1 -40 -82
-84 -263 -140 -357 -206 -465 -328 -12 -13 -36 -37 -53 -54 -18 -16 -46 -52
-62 -80 -16 -27 -44 -69 -61 -91 -18 -23 -41 -56 -52 -74 -53 -88 -86 -147
-95 -170 -44 -107 -96 -187 -132 -199 -49 -17 -97 -13 -131 12 -32 22 -37 22
-372 24 -456 2 -493 6 -524 56 -11 17 -13 304 -12 1577 1 1071 -1 1565 -9
1584 -10 27 -13 28 -58 21 -26 -3 -68 -7 -94 -8 -26 -1 -53 -8 -59 -14 -17
-17 -66 -16 -76 1 -5 8 -32 15 -70 18 -59 4 -77 -2 -53 -17 15 -10 -7 -45 -56
-89 -24 -21 -44 -45 -44 -53 0 -7 -7 -24 -15 -37 -13 -20 -14 -37 -6 -103 6
-49 6 -94 1 -118 -14 -59 -12 -119 5 -141 18 -23 19 -54 2 -75 -18 -23 -16
-534 2 -567 9 -18 9 -35 -4 -85 -8 -34 -15 -78 -15 -97 -1 -255 0 -280 16
-320 15 -37 15 -46 4 -64 -12 -18 -23 -237 -18 -346 1 -14 0 -68 -1 -120 -1
-52 -2 -104 -1 -115 0 -11 1 -119 1 -240 0 -121 3 -242 7 -270 4 -27 4 -78 -1
-112 -6 -48 -4 -69 7 -90 22 -44 30 -119 16 -153 -18 -44 -71 -80 -119 -80
-33 0 -44 5 -63 30 l-22 30 -351 -1 c-209 0 -374 4 -410 10 -33 6 -63 11 -67
11 -5 0 -17 9 -28 20 -20 20 -20 34 -20 618 -1 480 -3 600 -14 615 -17 22 -81
23 -136 1 -22 -9 -48 -13 -57 -9 -53 20 -114 24 -168 10 -44 -12 -65 -13 -100
-4 -33 8 -53 8 -81 -1 -35 -12 -36 -14 -19 -26 10 -8 28 -15 39 -16 12 -1 -17
-5 -64 -9 -311 -26 -579 -84 -755 -164 -16 -7 -52 -22 -80 -33 -105 -41 -169
-75 -258 -135 -258 -174 -344 -276 -470 -559 -11 -26 -23 -38 -37 -38 -34 0
-43 -51 -24 -138 2 -12 18 -34 34 -49 92 -82 -54 -207 -149 -127 l-30 25 -503
-5 c-603 -6 -725 3 -763 57 -10 14 -15 46 -16 92 0 73 -10 162 -29 255 -6 30
-17 96 -26 145 -12 70 -28 116 -72 205 -51 102 -68 127 -156 217 -96 100 -144
135 -268 194 -105 51 -282 89 -438 95 -105 5 -105 5 -78 -14 l27 -18 -28 -17
c-16 -9 -41 -17 -55 -17 -60 0 -255 -91 -371 -172 -145 -102 -220 -193 -327
-398 -44 -83 -108 -253 -108 -286 0 -11 -18 -39 -40 -62 -51 -52 -54 -90 -9
-125 28 -22 31 -30 31 -73 -2 -60 -25 -94 -78 -112 -34 -12 -49 -11 -126 8
-70 17 -121 21 -265 22 -98 1 -223 -2 -278 -6 -55 -4 -120 -7 -145 -7 -25 1
-101 3 -170 5 -102 3 -134 7 -172 25 -26 11 -51 21 -57 21 -5 0 -17 10 -25 22
-13 19 -16 60 -16 248 0 154 -5 244 -14 285 -8 33 -17 85 -20 115 -13 103 -58
223 -127 338 -90 149 -267 275 -449 321 -114 29 -201 35 -354 26 -124 -7 -127
-8 -110 -26 16 -18 16 -19 0 -19 -9 0 -28 -8 -42 -17 -40 -26 -118 -23 -144 4
-11 13 -27 23 -34 23 -7 0 -21 9 -32 21 -15 17 -20 41 -24 127 -5 102 -6 107
-30 117 -15 6 -97 9 -208 7 l-183 -3 6 -28 c5 -23 0 -35 -27 -63 -60 -65 -59
-61 -64 -211 -2 -78 -3 -194 -2 -257 2 -63 2 -185 1 -270 -5 -295 -3 -426 8
-576 12 -164 8 -185 -40 -228 -32 -29 -108 -27 -150 3 -27 19 -40 22 -84 17
-29 -3 -104 -8 -167 -10 -63 -2 -126 -8 -140 -14 -14 -6 -51 -35 -83 -65 l-57
-54 -4 -134 c-2 -108 -7 -140 -22 -165 -24 -42 -9 -78 36 -88 40 -8 1137 -8
1167 0 12 3 25 13 29 22 4 10 8 242 10 517 1 275 5 525 9 555 14 114 105 224
209 251 22 6 57 15 76 20 19 6 81 13 136 16 93 5 107 4 171 -21 73 -28 98 -51
158 -146 65 -102 69 -198 65 -1620 -1 -272 -1 -502 0 -510 1 -14 -1 -29 -15
-150 -5 -42 -4 -59 7 -67 15 -13 471 -21 500 -9 9 4 20 19 24 34 4 15 8 254 9
532 1 278 5 515 9 527 4 12 17 25 29 29 25 9 2107 7 2442 -2 173 -4 223 -9
235 -20 13 -13 25 -60 48 -189 4 -22 11 -38 16 -37 13 5 26 -19 26 -50 0 -21
-5 -28 -20 -28 -17 0 -20 -7 -20 -51 0 -46 2 -50 20 -44 18 6 20 2 20 -34 0
-42 -7 -50 -28 -29 -9 9 -12 -2 -13 -52 -1 -36 -2 -103 -3 -150 -1 -47 1 -110
5 -140 5 -40 3 -63 -8 -84 -10 -20 -13 -44 -8 -80 8 -68 8 -133 0 -178 -8 -39
8 -102 32 -130 13 -14 12 -20 -3 -43 -15 -23 -16 -32 -5 -73 23 -87 29 -147
20 -201 -10 -63 -51 -151 -81 -172 -11 -8 -48 -34 -81 -58 -90 -65 -179 -100
-252 -101 -50 0 -62 4 -73 20 -7 11 -22 20 -34 20 -12 0 -69 23 -125 51 -88
43 -111 59 -153 110 -28 33 -50 61 -51 62 0 1 -4 82 -8 179 -5 111 -13 183
-20 192 -22 26 -61 28 -104 6 -35 -19 -56 -21 -142 -20 -137 3 -132 4 -166
-32 -72 -78 -80 -93 -71 -135 5 -23 5 -49 0 -63 l-9 -25 -18 22 -18 21 -11
-31 c-9 -25 -8 -52 4 -122 9 -49 19 -110 23 -135 4 -25 25 -76 47 -113 21 -38
47 -83 56 -102 10 -18 40 -53 68 -77 27 -24 53 -51 56 -60 2 -9 25 -27 50 -39
25 -12 57 -31 72 -43 62 -51 216 -116 274 -116 10 0 33 -7 50 -16 23 -12 72
-17 192 -21 147 -5 166 -4 216 16 30 11 65 21 78 21 37 0 168 58 270 119 130
78 279 222 328 316 20 39 44 86 55 106 16 33 25 63 59 214 5 22 9 337 10 700
1 363 3 671 4 685 18 218 16 208 49 219 21 8 980 11 3122 11 l3091 0 26 -28
c14 -15 30 -43 37 -62 12 -35 107 -201 121 -210 9 -6 79 -62 134 -109 23 -19
61 -43 86 -54 25 -11 50 -27 56 -35 10 -14 32 -20 154 -42 36 -7 99 -20 140
-30 67 -16 100 -17 305 -11 195 7 247 12 344 35 63 14 121 26 131 26 9 0 25 8
36 18 11 9 32 24 47 32 67 37 171 116 219 164 61 62 103 126 142 219 16 36 36
69 45 73 9 3 132 7 274 8 l258 2 42 -42 c23 -24 62 -65 86 -93 24 -28 64 -62
90 -77 25 -15 59 -38 74 -53 28 -26 31 -26 176 -26 141 0 149 1 183 25 121 86
125 90 173 189 26 53 50 102 54 110 22 45 64 38 91 -15 86 -166 124 -205 224
-227 68 -15 719 -18 854 -4 100 11 105 12 148 50 25 22 51 51 58 66 21 41 67
211 73 266 2 28 6 56 8 63 7 21 32 13 62 -20 105 -118 264 -273 298 -289 22
-10 47 -23 55 -28 8 -5 42 -20 75 -34 194 -81 391 -99 1040 -95 381 3 498 7
525 17 96 37 113 47 146 85 41 46 46 56 67 141 9 33 23 88 32 123 17 65 13
117 -8 125 -7 3 -75 1 -152 -4 -77 -6 -147 -10 -155 -10 -8 -1 -71 5 -140 12
-69 7 -165 11 -215 10 -106 -2 -175 -2 -212 0 -16 1 -68 -3 -118 -9 -67 -7
-96 -7 -115 2 -14 7 -44 9 -70 6 -39 -4 -45 -8 -43 -27 4 -36 -26 -36 -82 2
-38 25 -65 35 -92 35 -45 0 -167 38 -206 64 -29 19 -82 92 -99 135 -6 15 -19
64 -29 110 -17 76 -19 130 -19 507 0 396 1 423 19 445 17 22 26 23 185 27
l167 4 35 -27 c35 -27 43 -52 22 -73 -23 -23 -26 -395 -5 -472 6 -20 2 -30
-20 -47 -22 -18 -27 -30 -27 -70 l-1 -48 289 -3 c205 -2 293 1 302 9 8 6 14
23 14 37 0 14 9 53 19 86 48 152 53 175 48 243 -6 78 -31 193 -52 240 -8 17
-15 44 -15 61 0 32 -32 97 -99 205 -38 62 -75 102 -133 147 -11 8 -39 31 -62
51 -24 19 -58 41 -77 49 -19 7 -45 21 -59 31 -14 9 -55 28 -91 43 -65 26 -73
27 -263 25 -175 -1 -197 -3 -195 -18 3 -32 -1 -41 -21 -41 -19 0 -22 5 -24 40
-1 21 -39 24 -89 6 -23 -8 -53 -14 -67 -13 -20 2 -25 -3 -25 -20 0 -28 -39
-69 -73 -76 -27 -6 -192 -156 -192 -175 0 -6 -18 -30 -40 -54 -23 -23 -44 -54
-47 -68 -4 -14 -15 -44 -25 -68 -11 -23 -23 -68 -28 -99 -6 -34 -17 -63 -30
-75 -21 -20 -27 -67 -10 -84 6 -6 14 -24 19 -41 11 -36 -10 -76 -34 -67 -12 5
-15 -5 -15 -52 0 -32 -5 -72 -12 -90 -9 -25 -9 -39 -1 -56 6 -13 14 -63 17
-113 7 -131 26 -233 53 -289 12 -28 23 -60 23 -72 0 -29 42 -113 75 -148 25
-27 31 -59 19 -103 -6 -22 -11 -23 -101 -23 -52 0 -102 4 -112 10 -10 5 -135
12 -277 15 -337 8 -306 -17 -316 263 -12 347 -17 623 -23 1456 -3 440 -7 802
-9 805 -2 3 -7 238 -11 521 -4 283 -11 525 -16 537 -11 29 -35 35 -110 24 -36
-5 -74 -5 -87 0 -13 5 -24 8 -25 8 -1 -1 -10 -3 -19 -6z m-375 -2334 c49 -22
50 -34 47 -329 -2 -151 -4 -300 -3 -330 1 -88 15 -240 23 -245 4 -2 2 -26 -5
-52 -18 -70 -8 -171 22 -209 42 -55 25 -122 -37 -147 -41 -16 -53 -12 -103 30
-23 18 -40 23 -90 23 -46 0 -68 5 -87 20 -14 11 -29 20 -35 20 -24 1 -93 80
-121 140 -47 98 -52 117 -59 215 -4 50 -13 108 -20 130 -9 29 -13 132 -14 367
l-2 328 25 25 25 25 205 0 c125 0 214 -4 229 -11z m2494 -163 c-7 -18 -16 -20
-36 -7 -12 8 -12 14 4 37 18 28 18 28 28 7 5 -12 7 -29 4 -37z m-13069 -132
c70 -16 83 -23 150 -85 33 -32 106 -125 131 -168 26 -47 51 -135 52 -185 1
-71 11 -99 39 -113 34 -17 41 -35 33 -89 -9 -70 -45 -104 -110 -104 -29 0 -63
8 -86 20 -45 24 -75 25 -106 4 -19 -14 -29 -15 -61 -5 -49 15 -87 14 -93 -1
-4 -10 -7 -10 -18 0 -8 7 -45 12 -98 13 -172 2 -331 41 -385 94 -13 13 -16 40
-16 139 0 143 14 194 83 299 72 109 130 149 267 180 87 20 134 20 218 1z
m3971 -10 c14 -17 21 -41 21 -68 0 -22 7 -54 15 -70 19 -36 19 -51 -1 -82 -15
-21 -15 -30 -4 -63 10 -30 10 -43 0 -61 -10 -19 -9 -27 9 -51 26 -35 26 -53 1
-95 -20 -32 -20 -33 -2 -51 29 -27 42 -58 42 -97 0 -99 -70 -150 -180 -131
-34 6 -39 9 -29 21 7 8 9 17 6 20 -3 4 -82 8 -174 11 -405 10 -547 26 -660 74
-86 37 -162 131 -163 203 0 67 80 151 222 233 49 28 97 58 107 66 19 16 131
61 178 72 18 3 35 11 38 16 4 5 26 9 51 9 25 0 62 9 84 20 24 12 60 20 92 20
29 1 78 7 108 15 30 7 92 14 137 14 77 1 83 -1 102 -25z m9085 10 c10 -27 7
-52 -9 -58 -8 -3 -15 -14 -15 -25 0 -11 -5 -23 -12 -27 -8 -5 -9 0 -3 17 4 13
7 43 6 67 -1 30 3 42 13 42 8 0 17 -7 20 -16z m-4822 -271 c39 -26 228 -205
228 -216 0 -3 19 -33 43 -67 60 -88 85 -137 102 -200 9 -30 19 -68 24 -85 5
-16 12 -60 16 -96 5 -54 12 -72 36 -99 28 -31 30 -37 24 -84 -17 -124 -108
-209 -270 -252 -54 -15 -207 -18 -240 -5 -16 7 -12 10 25 23 l45 15 -70 7
c-234 23 -319 44 -395 100 -54 39 -98 101 -111 153 -29 119 -29 132 -8 191 11
31 26 77 33 102 18 62 53 141 75 165 10 11 34 50 54 87 42 75 162 202 247 260
62 43 78 43 142 1z m3688 -19 c0 -8 -5 -12 -10 -9 -6 4 -8 11 -5 16 9 14 15
11 15 -7z m1604 -739 c3 -9 0 -15 -9 -15 -8 0 -15 7 -15 15 0 8 4 15 9 15 5 0
11 -7 15 -15z"/>
<path d="M2750 6306 c-195 -60 -603 -263 -1142 -569 -69 -40 -327 -194 -448
-269 -378 -234 -594 -381 -785 -537 -166 -136 -183 -169 -220 -421 -71 -500
-72 -2057 -1 -2565 34 -236 53 -284 153 -374 127 -114 490 -372 728 -518 108
-66 488 -295 515 -311 19 -10 94 -53 165 -94 72 -41 166 -94 210 -118 44 -24
105 -57 135 -73 75 -41 448 -227 455 -227 4 0 32 -12 63 -26 102 -47 224 -84
277 -84 138 0 563 199 1200 563 191 109 521 308 629 379 49 32 91 58 93 58 3
0 23 13 46 29 23 15 53 35 67 44 14 9 46 31 72 49 25 18 88 62 140 97 227 156
365 278 399 355 69 157 109 715 109 1526 0 595 -15 937 -55 1270 -28 231 -41
267 -128 357 -180 187 -974 706 -1587 1036 -41 22 -111 60 -155 85 -251 139
-635 315 -760 348 -67 18 -87 17 -175 -10z m-543 -1773 c-3 -10 -5 -4 -5 12 0
17 2 24 5 18 2 -7 2 -21 0 -30z m0 -1515 c-3 -8 -6 -5 -6 6 -1 11 2 17 5 13 3
-3 4 -12 1 -19z"/>
<path d="M25613 5390 c-49 -5 -67 -12 -82 -31 l-19 -24 -30 22 c-41 31 -82 35
-82 8 0 -8 -17 -26 -37 -40 -117 -77 -149 -104 -210 -177 -29 -33 -55 -75 -58
-92 -11 -52 -29 -86 -45 -83 -38 6 -51 -216 -17 -295 21 -48 57 -184 57 -213
0 -25 14 -55 61 -130 13 -22 33 -57 44 -78 21 -40 135 -167 151 -167 5 0 24
-13 43 -29 33 -27 34 -31 39 -110 2 -45 9 -84 13 -87 5 -3 9 -17 9 -31 0 -29
8 -27 13 3 1 10 7 27 13 37 9 16 11 16 24 -8 12 -23 12 -30 -2 -53 -9 -15 -23
-27 -30 -27 -22 0 -21 -32 2 -38 25 -6 27 -35 3 -44 -10 -4 -22 -13 -28 -20
-9 -12 -11 -303 -3 -448 1 -27 2 -88 1 -135 -1 -47 -1 -130 0 -185 l2 -100 80
-3 c104 -4 138 3 174 36 66 62 64 43 68 620 2 288 8 534 13 547 14 38 73 48
237 42 78 -3 151 -10 161 -16 21 -11 40 -100 41 -186 1 -181 11 -527 16 -534
3 -6 12 -8 20 -4 11 4 15 -3 15 -26 0 -22 -4 -29 -15 -25 -22 9 -29 -32 -27
-149 2 -59 5 -70 21 -74 30 -8 33 -31 6 -49 -29 -19 -32 -64 -13 -174 6 -36
12 -81 13 -100 3 -63 17 -124 41 -179 13 -29 24 -59 24 -67 0 -24 42 -85 89
-129 31 -29 68 -52 111 -67 64 -23 72 -23 445 -22 l380 1 73 38 c41 21 81 50
90 64 28 44 84 116 95 123 27 17 37 -15 37 -114 0 -76 3 -100 14 -104 8 -3 88
-6 178 -7 l163 -2 55 38 c30 20 58 37 62 37 4 0 14 12 22 27 8 16 26 42 41 58
14 17 35 48 45 70 47 102 63 134 94 195 19 36 40 87 47 115 7 27 25 71 41 96
15 25 28 55 28 67 0 17 22 65 68 147 24 43 60 132 67 163 6 31 53 130 85 178
8 13 20 19 30 17 30 -8 40 -73 40 -265 0 -102 5 -209 10 -239 6 -29 12 -114
14 -189 5 -160 14 -238 32 -265 6 -11 15 -35 19 -53 11 -53 75 -124 146 -162
l64 -35 426 0 c393 0 428 1 446 17 11 10 25 18 31 18 6 0 30 10 53 22 45 23
92 88 126 173 22 54 45 179 38 210 -2 11 -6 32 -9 46 -7 32 -36 42 -72 23 -14
-8 -36 -14 -49 -14 -14 0 -25 -7 -28 -20 -4 -15 -14 -20 -41 -20 -20 0 -36 5
-36 10 0 6 9 10 19 10 11 0 22 4 25 9 8 12 -89 19 -164 11 -72 -8 -243 3 -326
20 -43 9 -57 17 -68 38 -14 28 -24 417 -27 1017 -1 190 -6 275 -20 355 -40
239 -51 270 -123 382 -17 27 -36 48 -42 48 -6 0 -19 9 -30 21 -34 38 -50 41
-91 19 -32 -17 -38 -26 -38 -52 0 -27 -6 -35 -44 -55 -59 -31 -180 -158 -181
-190 -1 -4 -14 -24 -30 -43 -17 -19 -30 -40 -30 -47 0 -7 -11 -36 -24 -65 -13
-29 -45 -102 -71 -163 -26 -60 -55 -123 -65 -140 -10 -16 -23 -48 -30 -70 -7
-22 -21 -52 -31 -67 -11 -14 -19 -37 -19 -51 0 -13 -7 -30 -14 -37 -8 -6 -23
-33 -33 -58 -9 -26 -28 -58 -40 -72 -13 -14 -23 -27 -23 -30 0 -3 -21 -12 -46
-19 -73 -22 -76 -15 -85 196 -4 98 -10 329 -14 513 -4 184 -9 338 -12 342 -3
6 -86 6 -450 -1 -52 -1 -53 -2 -53 -31 0 -36 -34 -70 -71 -70 l-27 0 2 -77 c1
-70 3 -78 21 -78 40 0 43 -110 4 -159 -22 -28 -22 -30 2 -133 11 -45 10 -57
-6 -92 -13 -29 -16 -49 -10 -73 8 -33 12 -257 14 -715 l1 -243 26 0 c26 0 26
-1 22 -56 -6 -67 -27 -89 -97 -99 -37 -6 -47 -4 -60 13 -19 24 -79 36 -113 23
-14 -5 -59 -5 -115 1 -104 12 -139 7 -148 -22 -7 -23 -35 -27 -35 -5 0 26 -48
37 -109 27 -47 -8 -63 -6 -110 12 -97 37 -90 25 -101 187 -5 79 -11 466 -14
859 -7 834 5 758 -117 742 -41 -6 -139 -9 -219 -8 -80 1 -258 3 -395 4 l-251
2 -32 28 -32 27 -7 388 c-7 328 -10 389 -23 397 -8 5 -19 9 -25 8 -5 0 -38 -4
-72 -8z m-543 -472 c0 -26 -4 -38 -8 -30 -8 12 -4 72 4 72 2 0 4 -19 4 -42z
m452 -1830 c8 -24 -4 -57 -18 -51 -19 7 -19 63 0 63 8 0 16 -5 18 -12z"/>
<path d="M10860 5285 c0 -44 -2 -47 -109 -151 -117 -115 -183 -164 -219 -164
-34 0 -36 -24 -5 -57 15 -17 37 -41 49 -54 12 -13 32 -33 45 -45 13 -11 71
-69 127 -127 64 -66 112 -107 124 -107 31 0 378 340 378 372 0 22 -351 378
-373 378 -14 0 -17 -9 -17 -45z"/>
<path d="M18794 5007 c9 -46 -14 -81 -119 -177 -138 -127 -162 -142 -207 -135
-53 9 -50 -10 13 -76 165 -174 315 -319 331 -319 11 0 60 39 110 88 238 227
278 268 278 283 0 9 -28 42 -62 74 -35 32 -113 105 -175 163 -147 138 -180
158 -169 99z"/>
<path d="M19725 5007 c9 -35 -9 -70 -60 -118 -26 -24 -80 -77 -122 -116 -73
-71 -83 -76 -162 -86 -32 -4 -17 -28 76 -125 54 -55 114 -118 134 -139 63 -66
137 -133 149 -133 12 0 56 40 242 219 163 158 165 163 86 231 -28 25 -61 56
-72 70 -47 56 -243 220 -264 220 -8 0 -10 -8 -7 -23z"/>
<path d="M21097 4527 c-3 -8 -1 -20 4 -28 11 -19 32 2 23 24 -7 20 -20 22 -27
4z"/>
<path d="M14883 4303 c9 -2 23 -2 30 0 6 3 -1 5 -18 5 -16 0 -22 -2 -12 -5z"/>
<path d="M10060 1038 c0 -31 3 -39 10 -28 13 20 13 57 0 65 -6 4 -10 -11 -10
-37z"/>
</g>
</svg>
